<svg width="16" height="18" viewBox="0 0 16 18" fill="none" xmlns="http://www.w3.org/2000/svg">
<path d="M8.09614 17.3333C9.23066 17.3333 10.1791 16.6383 10.5348 15.6666H5.65749C6.01316 16.6383 6.96162 17.3333 8.09614 17.3333ZM14.1538 11.155V7.33329C14.1538 4.65246 12.263 2.39413 9.70143 1.71496C9.44787 1.09996 8.82826 0.666626 8.09614 0.666626C7.36403 0.666626 6.74441 1.09996 6.49085 1.71496C3.92931 2.39496 2.03845 4.65246 2.03845 7.33329V11.155L0.561236 12.5775C0.398544 12.7333 0.307678 12.945 0.307678 13.1666V14C0.307678 14.4608 0.694505 14.8333 1.17306 14.8333H15.0192C15.4978 14.8333 15.8846 14.4608 15.8846 14V13.1666C15.8846 12.945 15.7937 12.7333 15.631 12.5775L14.1538 11.155Z" fill="#FAFAFA"/>
</svg>
