<svg width="22" height="22" viewBox="0 0 22 22" fill="none" xmlns="http://www.w3.org/2000/svg">
<path d="M6.41667 10.0833H8.25001V11.9167H6.41667V10.0833ZM6.41667 13.75H8.25001V15.5833H6.41667V13.75ZM10.0833 10.0833H11.9167V11.9167H10.0833V10.0833ZM10.0833 13.75H11.9167V15.5833H10.0833V13.75ZM13.75 10.0833H15.5833V11.9167H13.75V10.0833ZM13.75 13.75H15.5833V15.5833H13.75V13.75Z" fill="#303030"/>
<path d="M4.58333 20.1667H17.4167C18.4278 20.1667 19.25 19.3444 19.25 18.3333V7.33334V5.50001C19.25 4.48893 18.4278 3.66668 17.4167 3.66668H15.5833V1.83334H13.75V3.66668H8.25V1.83334H6.41667V3.66668H4.58333C3.57225 3.66668 2.75 4.48893 2.75 5.50001V7.33334V18.3333C2.75 19.3444 3.57225 20.1667 4.58333 20.1667ZM17.4167 7.33334L17.4176 18.3333H4.58333V7.33334H17.4167Z" fill="#303030"/>
</svg>
