<svg width="23" height="23" viewBox="0 0 23 23" fill="none" xmlns="http://www.w3.org/2000/svg">
<path d="M8.78984 15.5653L11.5 12.8551L14.2102 15.5653L15.5653 14.2102L12.8551 11.5L15.5653 8.78987L14.2102 7.43478L11.5 10.145L8.78984 7.43478L7.43475 8.78987L10.1449 11.5L7.43475 14.2102L8.78984 15.5653Z" fill="#8FB39C"/>
<path d="M11.5 21.0834C16.7842 21.0834 21.0833 16.7843 21.0833 11.5C21.0833 6.21577 16.7842 1.91669 11.5 1.91669C6.21571 1.91669 1.91663 6.21577 1.91663 11.5C1.91663 16.7843 6.21571 21.0834 11.5 21.0834ZM11.5 3.83335C15.7272 3.83335 19.1666 7.27281 19.1666 11.5C19.1666 15.7272 15.7272 19.1667 11.5 19.1667C7.27275 19.1667 3.83329 15.7272 3.83329 11.5C3.83329 7.27281 7.27275 3.83335 11.5 3.83335Z" fill="#8FB39C"/>
</svg>
