<svg width="14" height="14" viewBox="0 0 14 14" fill="none" xmlns="http://www.w3.org/2000/svg">
<path d="M6.99992 2.33335C5.39167 2.33335 4.08325 3.64176 4.08325 5.25001H5.24992C5.24992 4.28518 6.03509 3.50001 6.99992 3.50001C7.96475 3.50001 8.74992 4.28518 8.74992 5.25001C8.74992 5.8736 8.48509 6.1046 7.886 6.56543C7.66317 6.73693 7.41175 6.9306 7.17084 7.17093C6.4055 7.93568 6.41367 8.68993 6.41659 8.75001V9.91668H7.58325V8.74476C7.58325 8.73076 7.59667 8.39418 7.99567 7.99576C8.18234 7.8091 8.3935 7.64693 8.59709 7.49001C9.21542 7.01401 9.91659 6.47501 9.91659 5.25001C9.91659 3.64176 8.60817 2.33335 6.99992 2.33335ZM6.41659 10.5H7.58325V11.6667H6.41659V10.5Z" fill="#303030"/>
</svg>
