<svg width="17" height="17" viewBox="0 0 17 17" fill="none" xmlns="http://www.w3.org/2000/svg">
<path d="M4.80754 4.95833H12.1926C12.1161 4.84641 12.0502 4.72387 11.9674 4.61762L13.9599 2.62579L12.9583 1.62421L10.9424 3.64012C10.7774 3.52254 10.6074 3.41275 10.4303 3.31854C9.20983 2.67396 7.79104 2.67325 6.56987 3.31854C6.39279 3.41204 6.22421 3.52183 6.05846 3.63941L4.04254 1.62421L3.04096 2.62579L5.0335 4.61762C4.94991 4.72458 4.88475 4.84641 4.80754 4.95833ZM4.07725 6.375H1.41675V7.79166H3.05087C3.00483 8.14229 2.97508 8.49787 2.97508 8.85416C2.97508 9.21329 3.00483 9.57171 3.05087 9.92446H1.41675V11.3411H3.36679C3.376 11.3687 3.38166 11.3978 3.39087 11.4247C3.52404 11.8178 3.68908 12.1989 3.88316 12.558C3.91433 12.6154 3.95046 12.6678 3.98304 12.7238L2.33262 14.3742L3.33421 15.3758L4.82879 13.8805C4.99525 14.0604 5.16737 14.2332 5.35012 14.3877C5.64621 14.6384 5.96425 14.853 6.29362 15.0273C6.63292 15.2065 6.98921 15.3453 7.35329 15.4381C7.49779 15.475 7.64441 15.4983 7.79104 15.5217V11.3333H9.20771V15.5224C9.35433 15.4997 9.50096 15.4764 9.64546 15.4388C10.0095 15.346 10.3658 15.2072 10.7051 15.028C11.0345 14.8537 11.3525 14.6384 11.6493 14.3877C11.8321 14.2332 12.0035 14.0604 12.1692 13.8805L13.6645 15.3758L14.6661 14.3742L13.0157 12.7238C13.049 12.6671 13.0851 12.614 13.1163 12.5566C13.3097 12.1989 13.4754 11.8178 13.6079 11.424C13.6171 11.3964 13.6227 11.368 13.632 11.3404H15.5834V9.92375H13.9486C13.9946 9.57029 14.0244 9.21258 14.0244 8.85346C14.0244 8.49716 13.9946 8.14158 13.9493 7.79096H15.5834V6.375H12.9229H4.07725Z" fill="#303030"/>
</svg>
