<svg width="14" height="14" viewBox="0 0 14 14" fill="none" xmlns="http://www.w3.org/2000/svg">
<path d="M2.33329 10.5H2.91663H3.49996V12.8806L6.47554 10.5H6.99996H9.33329C9.97671 10.5 10.5 9.97675 10.5 9.33333V4.66667C10.5 4.02325 9.97671 3.5 9.33329 3.5H2.33329C1.68988 3.5 1.16663 4.02325 1.16663 4.66667V9.33333C1.16663 9.97675 1.68988 10.5 2.33329 10.5Z" fill="#303030"/>
<path d="M11.6667 1.16667H11.0833H9.9155H5.25H4.66667C4.02325 1.16667 3.5 1.68992 3.5 2.33333H5.25H9.67517H10.5C11.1434 2.33333 11.6667 2.85658 11.6667 3.5V4.32483V6.41667V8.16667C12.3101 8.16667 12.8333 7.64342 12.8333 7V6.41667V4.08333V2.91667V2.33333C12.8333 1.68992 12.3101 1.16667 11.6667 1.16667Z" fill="#303030"/>
</svg>
