<svg width="16" height="15" viewBox="0 0 16 15" fill="none" xmlns="http://www.w3.org/2000/svg">
<path d="M2.61831 6.875H6.5296C6.88944 6.875 7.18148 6.595 7.18148 6.25V2.5C7.18148 2.155 6.88944 1.875 6.5296 1.875H2.61831C2.25847 1.875 1.96643 2.155 1.96643 2.5V6.25C1.96643 6.595 2.25847 6.875 2.61831 6.875ZM9.13713 6.875H13.0484C13.4089 6.875 13.7003 6.595 13.7003 6.25V2.5C13.7003 2.155 13.4089 1.875 13.0484 1.875H9.13713C8.77664 1.875 8.48525 2.155 8.48525 2.5V6.25C8.48525 6.595 8.77664 6.875 9.13713 6.875ZM2.61831 13.125H6.5296C6.88944 13.125 7.18148 12.845 7.18148 12.5V8.75C7.18148 8.405 6.88944 8.125 6.5296 8.125H2.61831C2.25847 8.125 1.96643 8.405 1.96643 8.75V12.5C1.96643 12.845 2.25847 13.125 2.61831 13.125ZM9.13713 13.125H13.0484C13.4089 13.125 13.7003 12.845 13.7003 12.5V8.75C13.7003 8.405 13.4089 8.125 13.0484 8.125H9.13713C8.77664 8.125 8.48525 8.405 8.48525 8.75V12.5C8.48525 12.845 8.77664 13.125 9.13713 13.125Z" fill="#303030"/>
</svg>
