<svg width="71" height="19" viewBox="0 0 71 19" fill="none" xmlns="http://www.w3.org/2000/svg">
<path d="M16.704 1.2V18H13.632V3.84H7.008L6.864 8.04C6.784 10.392 6.592 12.304 6.288 13.776C5.984 15.232 5.496 16.344 4.824 17.112C4.152 17.864 3.224 18.24 2.04 18.24C1.624 18.24 1.056 18.16 0.336 18L0.552 15.288C0.76 15.352 1 15.384 1.272 15.384C2.248 15.384 2.936 14.808 3.336 13.656C3.752 12.488 4.008 10.656 4.104 8.16L4.344 1.2H16.704ZM29.2061 18.24C27.4941 18.24 25.9501 17.872 24.5741 17.136C23.1981 16.384 22.1181 15.352 21.3341 14.04C20.5501 12.712 20.1581 11.232 20.1581 9.6C20.1581 7.968 20.5501 6.496 21.3341 5.184C22.1181 3.856 23.1981 2.824 24.5741 2.088C25.9501 1.336 27.4941 0.959999 29.2061 0.959999C30.9181 0.959999 32.4621 1.336 33.8381 2.088C35.2141 2.824 36.2941 3.848 37.0781 5.16C37.8621 6.472 38.2541 7.952 38.2541 9.6C38.2541 11.248 37.8621 12.728 37.0781 14.04C36.2941 15.352 35.2141 16.384 33.8381 17.136C32.4621 17.872 30.9181 18.24 29.2061 18.24ZM29.2061 15.504C30.3261 15.504 31.3341 15.256 32.2301 14.76C33.1261 14.248 33.8301 13.544 34.3421 12.648C34.8541 11.736 35.1101 10.72 35.1101 9.6C35.1101 8.48 34.8541 7.472 34.3421 6.576C33.8301 5.664 33.1261 4.96 32.2301 4.464C31.3341 3.952 30.3261 3.696 29.2061 3.696C28.0861 3.696 27.0781 3.952 26.1821 4.464C25.2861 4.96 24.5821 5.664 24.0701 6.576C23.5581 7.472 23.3021 8.48 23.3021 9.6C23.3021 10.72 23.5581 11.736 24.0701 12.648C24.5821 13.544 25.2861 14.248 26.1821 14.76C27.0781 15.256 28.0861 15.504 29.2061 15.504ZM53.1036 3.84H44.7756L44.7996 18H41.7276V1.2H53.1276L53.1036 3.84ZM61.5968 18.24C59.8848 18.24 58.3408 17.872 56.9648 17.136C55.5888 16.384 54.5088 15.352 53.7248 14.04C52.9408 12.712 52.5488 11.232 52.5488 9.6C52.5488 7.968 52.9408 6.496 53.7248 5.184C54.5088 3.856 55.5888 2.824 56.9648 2.088C58.3408 1.336 59.8848 0.959999 61.5968 0.959999C63.3088 0.959999 64.8528 1.336 66.2288 2.088C67.6048 2.824 68.6848 3.848 69.4688 5.16C70.2528 6.472 70.6448 7.952 70.6448 9.6C70.6448 11.248 70.2528 12.728 69.4688 14.04C68.6848 15.352 67.6048 16.384 66.2288 17.136C64.8528 17.872 63.3088 18.24 61.5968 18.24ZM61.5968 15.504C62.7168 15.504 63.7248 15.256 64.6208 14.76C65.5168 14.248 66.2208 13.544 66.7328 12.648C67.2448 11.736 67.5008 10.72 67.5008 9.6C67.5008 8.48 67.2448 7.472 66.7328 6.576C66.2208 5.664 65.5168 4.96 64.6208 4.464C63.7248 3.952 62.7168 3.696 61.5968 3.696C60.4768 3.696 59.4688 3.952 58.5728 4.464C57.6768 4.96 56.9728 5.664 56.4608 6.576C55.9488 7.472 55.6928 8.48 55.6928 9.6C55.6928 10.72 55.9488 11.736 56.4608 12.648C56.9728 13.544 57.6768 14.248 58.5728 14.76C59.4688 15.256 60.4768 15.504 61.5968 15.504Z" fill="#E1E1E1"/>
</svg>
